<svg xmlns="http://www.w3.org/2000/svg" width="32" height="27.196" viewBox="0 0 32 27.196"><defs><style>.a{fill:#1b1b1b;}</style></defs><g transform="translate(24 4.465)"><path class="a" d="M17.332,29.863A1.6,1.6,0,0,1,16.2,29.4L3.766,16.952A8.371,8.371,0,1,1,15.6,5.114l1.728,1.728L19.06,5.114A8.371,8.371,0,1,1,30.9,16.952L18.468,29.4A1.6,1.6,0,0,1,17.332,29.863Zm-7.647-24a5.119,5.119,0,0,0-3.648,1.5,5.183,5.183,0,0,0,0,7.311l11.294,11.31,11.294-11.31a5.183,5.183,0,0,0,0-7.311,5.311,5.311,0,0,0-7.3,0l-2.864,2.88a1.6,1.6,0,0,1-2.272,0L13.333,7.37a5.119,5.119,0,0,0-3.648-1.5Z" transform="translate(-25.332 -7.132)"/></g></svg>