<svg xmlns="http://www.w3.org/2000/svg" width="320.896" height="84" viewBox="0 0 320.896 84"><defs><style>.a,.b,.c{fill:#fff;}.a{font-size:30px;}.a,.b{font-family:DINAlternate-Bold, DIN Alternate;font-weight:700;}.b{font-size:72px;}</style></defs><g transform="translate(-47.566 -23)"><text class="a" transform="translate(102.461 61)"><tspan x="0" y="0">NIJIBOX</tspan><tspan x="0" y="30">AWARD</tspan></text><text class="b" transform="translate(210.461 91)"><tspan x="0" y="0">VOTE</tspan></text><path class="c" d="M4.25,29.219V47.813H1.594a1.594,1.594,0,1,0,0,3.188H36.657a1.594,1.594,0,0,0,0-3.188H34.044v-13.9l2.433-2.465a1.787,1.787,0,0,0,.2-.253l6.473-9.986a3.679,3.679,0,0,0,1.717.444h.013a3.692,3.692,0,0,0,2.629-1.09l2.406-2.406a3.721,3.721,0,0,0,0-5.26L38.109,1.089a3.721,3.721,0,0,0-5.26,0L30.512,3.427a3.71,3.71,0,0,0-.92,3.676L20.137,9.5a13.714,13.714,0,0,0-8.9,7.149A13.868,13.868,0,0,0,9.8,22.759a13.38,13.38,0,0,0,.944,4.866h-4.9A1.594,1.594,0,0,0,4.25,29.219ZM32.764,5.682h0L35.1,3.342a.521.521,0,0,1,.374-.155.529.529,0,0,1,.376.155l11.807,11.8a.531.531,0,0,1,0,.752l-2.406,2.4a.527.527,0,0,1-.376.157h0A.53.53,0,0,1,44.5,18.3L32.76,6.43A.53.53,0,0,1,32.764,5.682ZM12.984,22.759a10.652,10.652,0,0,1,1.107-4.686,10.516,10.516,0,0,1,6.83-5.478L31.672,9.862l9.08,9.182L34.09,29.319l-9.2,9.331a2.157,2.157,0,0,1-1.551.64A2.126,2.126,0,0,1,21.5,38.244a2.322,2.322,0,0,1,.48-2.758l8.137-8.158a1.594,1.594,0,0,0,.193-2.021l-.344-.5a7.113,7.113,0,0,0-11.941.625l-1.264,2.2h-2.52a10.188,10.188,0,0,1-1.254-4.866Zm12.33,4.866H20.433l.351-.61a3.943,3.943,0,0,1,6.08-.944ZM7.438,30.813h14.7l-2.416,2.423a5.475,5.475,0,0,0-.963,6.639,5.292,5.292,0,0,0,4.58,2.607A5.356,5.356,0,0,0,27.148,40.9l3.708-3.759v10.67H7.438Z" transform="translate(47.566 39.999)"/></g></svg>